<svg xmlns="http://www.w3.org/2000/svg" xmlns:xlink="http://www.w3.org/1999/xlink" width="500" zoomAndPan="magnify" viewBox="0 0 375 374.999991" height="500" preserveAspectRatio="xMidYMid meet" version="1.0"><defs><clipPath id="3a89449aae"><path d="M 55.097656 39.542969 L 343.925781 39.542969 L 343.925781 175 L 55.097656 175 Z M 55.097656 39.542969 " clip-rule="nonzero"/></clipPath><clipPath id="d436cbbf5d"><path d="M 286 39.542969 L 325.84375 39.542969 L 325.84375 78.367188 L 286 78.367188 Z M 286 39.542969 " clip-rule="nonzero"/></clipPath><clipPath id="017c024248"><path d="M 73 39.542969 L 113 39.542969 L 113 78.367188 L 73 78.367188 Z M 73 39.542969 " clip-rule="nonzero"/></clipPath><clipPath id="0f81780a5b"><path d="M 131.082031 85 L 319.351562 85 L 319.351562 257 L 131.082031 257 Z M 131.082031 85 " clip-rule="nonzero"/></clipPath></defs><g clip-path="url(#3a89449aae)"><path fill="#004b72" d="M 112.460938 101.539062 L 199.476562 39.617188 L 343.925781 142.5 L 343.925781 174.320312 L 199.476562 71.613281 L 112.460938 133.523438 Z M 55.03125 142.5 L 73.230469 129.5 L 73.230469 161.4375 L 55.03125 174.320312 Z M 55.03125 142.5 " fill-opacity="1" fill-rule="nonzero"/></g><g clip-path="url(#d436cbbf5d)"><path fill="#004b72" d="M 325.546875 59.070312 C 325.546875 48.425781 316.882812 39.617188 306.191406 39.617188 C 295.503906 39.617188 286.664062 48.425781 286.664062 59.070312 C 286.664062 69.710938 295.503906 78.34375 306.191406 78.34375 C 316.882812 78.402344 325.546875 69.769531 325.546875 59.070312 Z M 325.546875 59.070312 " fill-opacity="1" fill-rule="nonzero"/></g><path fill="#004b72" d="M 112.976562 143.015625 L 199.476562 94.800781 L 285.96875 143.015625 L 199.476562 82.257812 Z M 112.976562 143.015625 " fill-opacity="1" fill-rule="nonzero"/><path fill="#32cd99" d="M 176.1875 142.15625 L 197.109375 142.15625 L 197.109375 162.984375 L 176.1875 162.984375 Z M 176.1875 142.15625 " fill-opacity="1" fill-rule="nonzero"/><path fill="#32cd99" d="M 201.84375 142.15625 L 222.757812 142.15625 L 222.757812 162.984375 L 201.84375 162.984375 Z M 201.84375 142.15625 " fill-opacity="1" fill-rule="nonzero"/><path fill="#32cd99" d="M 176.1875 167.589844 L 197.109375 167.589844 L 197.109375 188.191406 L 176.1875 188.191406 Z M 176.1875 167.589844 " fill-opacity="1" fill-rule="nonzero"/><path fill="#32cd99" d="M 201.84375 167.589844 L 222.757812 167.589844 L 222.757812 188.191406 L 201.84375 188.191406 Z M 201.84375 167.589844 " fill-opacity="1" fill-rule="nonzero"/><g clip-path="url(#017c024248)"><path fill="#32cd99" d="M 112.285156 59.070312 C 112.285156 48.425781 103.621094 39.617188 92.757812 39.617188 C 82.070312 39.617188 73.398438 48.425781 73.398438 59.070312 C 73.398438 69.710938 82.070312 78.34375 92.757812 78.34375 C 103.621094 78.402344 112.285156 69.769531 112.285156 59.070312 Z M 112.285156 59.070312 " fill-opacity="1" fill-rule="nonzero"/></g><path fill="#32cd99" d="M 199.476562 230.886719 C 173.824219 230.886719 150.363281 220.414062 133.375 203.5 C 116.390625 186.753906 105.875 163.390625 105.875 137.84375 C 105.875 111.089844 105.875 128.867188 105.875 102.113281 L 105.875 98.714844 C 105.875 91.582031 100.09375 85.824219 92.933594 85.824219 L 92.757812 85.824219 C 85.597656 85.824219 79.695312 91.582031 79.695312 98.714844 L 79.695312 102.113281 C 79.695312 127.828125 79.695312 108.902344 79.695312 134.625 L 79.695312 137.84375 C 79.695312 170.523438 93.28125 200.449219 114.886719 221.96875 C 118.640625 225.707031 122.511719 229.105469 126.789062 232.265625 L 131.878906 233.304688 C 161.109375 239.230469 193.753906 240.441406 221.953125 229.90625 C 225.875 228.527344 230.617188 226.339844 235.183594 223.804688 C 224.09375 228.292969 212.074219 230.886719 199.476562 230.886719 Z M 199.476562 230.886719 " fill-opacity="1" fill-rule="nonzero"/><g clip-path="url(#0f81780a5b)"><path fill="#004b72" d="M 250.78125 215.460938 C 250.78125 215.460938 216.289062 252.695312 131.472656 235.773438 C 150.652344 249.121094 174.289062 256.949219 199.417969 256.949219 C 232.410156 256.949219 262.285156 243.601562 284.058594 221.910156 C 305.675781 200.390625 319.25 170.464844 319.25 137.785156 L 319.25 134.5625 C 319.25 108.839844 319.25 127.777344 319.25 102.054688 L 319.25 98.65625 C 319.25 91.519531 313.300781 85.773438 306.308594 85.773438 L 305.960938 85.773438 C 298.792969 85.773438 293.019531 91.519531 293.019531 98.65625 L 293.019531 102.054688 C 293.019531 128.808594 293.019531 111.03125 293.019531 137.785156 C 293.019531 163.332031 282.503906 186.695312 265.511719 203.441406 C 261.007812 207.988281 256.039062 212.070312 250.78125 215.460938 Z M 250.78125 215.460938 " fill-opacity="1" fill-rule="nonzero"/></g><path fill="#000000" d="M 92.777344 335.507812 C 92.777344 338.574219 92 341.304688 90.441406 343.6875 C 88.886719 346.054688 86.640625 347.90625 83.714844 349.234375 C 80.78125 350.535156 77.339844 351.195312 73.402344 351.195312 C 70.085938 351.195312 67.316406 350.96875 65.082031 350.519531 C 62.851562 350.046875 60.527344 349.234375 58.117188 348.085938 L 58.117188 336.183594 C 60.664062 337.492188 63.308594 338.515625 66.0625 339.257812 C 68.8125 339.988281 71.347656 340.339844 73.671875 340.339844 C 75.648438 340.339844 77.105469 340.003906 78.035156 339.328125 C 78.957031 338.632812 79.421875 337.738281 79.421875 336.65625 C 79.421875 335.980469 79.226562 335.394531 78.84375 334.898438 C 78.480469 334.382812 77.882812 333.867188 77.054688 333.34375 C 76.242188 332.800781 74.042969 331.734375 70.460938 330.128906 C 67.230469 328.667969 64.8125 327.246094 63.191406 325.871094 C 61.585938 324.5 60.390625 322.917969 59.605469 321.136719 C 58.835938 319.359375 58.457031 317.246094 58.457031 314.8125 C 58.457031 310.265625 60.113281 306.714844 63.425781 304.160156 C 66.742188 301.617188 71.304688 300.339844 77.121094 300.339844 C 82.234375 300.339844 87.449219 301.523438 92.777344 303.890625 L 88.683594 314.203125 C 84.0625 312.089844 80.070312 311.027344 76.714844 311.027344 C 74.972656 311.027344 73.707031 311.332031 72.894531 311.9375 C 72.101562 312.546875 71.710938 313.308594 71.710938 314.203125 C 71.710938 315.175781 72.21875 316.046875 73.234375 316.808594 C 74.246094 317.578125 76.96875 318.972656 81.414062 321 C 85.675781 322.917969 88.625 324.980469 90.273438 327.1875 C 91.9375 329.378906 92.777344 332.152344 92.777344 335.507812 Z M 92.777344 335.507812 " fill-opacity="1" fill-rule="nonzero"/><path fill="#000000" d="M 123.789062 350.519531 L 123.789062 329.589844 C 123.789062 324.449219 122.269531 321.878906 119.226562 321.878906 C 117.0625 321.878906 115.457031 322.792969 114.425781 324.617188 C 113.410156 326.425781 112.902344 329.445312 112.902344 333.679688 L 112.902344 350.519531 L 99.648438 350.519531 L 99.648438 297.839844 L 112.902344 297.839844 L 112.902344 305.34375 C 112.902344 308.726562 112.707031 312.582031 112.328125 316.910156 L 112.96875 316.910156 C 114.230469 314.929688 115.726562 313.527344 117.46875 312.714844 C 119.199219 311.90625 121.21875 311.5 123.519531 311.5 C 127.796875 311.5 131.128906 312.742188 133.492188 315.21875 C 135.878906 317.679688 137.078125 321.128906 137.078125 325.566406 L 137.078125 350.519531 Z M 123.789062 350.519531 " fill-opacity="1" fill-rule="nonzero"/><path fill="#000000" d="M 182.707031 331.246094 C 182.707031 337.535156 181.015625 342.4375 177.632812 345.953125 C 174.269531 349.453125 169.5625 351.195312 163.5 351.195312 C 157.660156 351.195312 153.019531 349.402344 149.570312 345.820312 C 146.136719 342.234375 144.429688 337.382812 144.429688 331.246094 C 144.429688 325.007812 146.105469 320.15625 149.46875 316.707031 C 152.851562 313.242188 157.59375 311.5 163.703125 311.5 C 167.464844 311.5 170.789062 312.300781 173.679688 313.898438 C 176.5625 315.507812 178.785156 317.804688 180.339844 320.796875 C 181.910156 323.773438 182.707031 327.257812 182.707031 331.246094 Z M 157.855469 331.246094 C 157.855469 334.558594 158.292969 337.085938 159.171875 338.820312 C 160.070312 340.535156 161.554688 341.390625 163.636719 341.390625 C 165.679688 341.390625 167.128906 340.535156 167.964844 338.820312 C 168.816406 337.085938 169.25 334.558594 169.25 331.246094 C 169.25 327.984375 168.816406 325.515625 167.964844 323.839844 C 167.101562 322.175781 165.640625 321.339844 163.566406 321.339844 C 161.539062 321.339844 160.070312 322.175781 159.171875 323.839844 C 158.292969 325.488281 157.855469 327.957031 157.855469 331.246094 Z M 157.855469 331.246094 " fill-opacity="1" fill-rule="nonzero"/><path fill="#000000" d="M 213.285156 351.195312 C 211.339844 351.195312 209.609375 350.875 208.078125 350.25 C 206.539062 349.597656 205.019531 348.441406 203.511719 346.765625 L 202.871094 346.765625 C 203.292969 349.453125 203.511719 351.109375 203.511719 351.769531 L 203.511719 367.15625 L 190.257812 367.15625 L 190.257812 312.175781 L 201.011719 312.175781 L 202.871094 317.042969 L 203.511719 317.042969 C 205.964844 313.351562 209.363281 311.5 213.691406 311.5 C 217.925781 311.5 221.246094 313.257812 223.664062 316.773438 C 226.074219 320.289062 227.285156 325.117188 227.285156 331.246094 C 227.285156 337.449219 226.015625 342.328125 223.496094 345.886719 C 220.996094 349.429688 217.585938 351.195312 213.285156 351.195312 Z M 208.855469 321.878906 C 206.910156 321.878906 205.550781 322.582031 204.765625 323.976562 C 203.996094 325.355469 203.582031 327.40625 203.511719 330.128906 L 203.511719 331.179688 C 203.511719 334.492188 203.953125 336.882812 204.832031 338.347656 C 205.710938 339.816406 207.097656 340.542969 208.992188 340.542969 C 210.679688 340.542969 211.90625 339.824219 212.675781 338.378906 C 213.4375 336.917969 213.824219 334.492188 213.824219 331.109375 C 213.824219 327.824219 213.4375 325.464844 212.675781 324.042969 C 211.90625 322.605469 210.628906 321.878906 208.855469 321.878906 Z M 208.855469 321.878906 " fill-opacity="1" fill-rule="nonzero"/><path fill="#000000" d="M 283.984375 350.519531 L 281.550781 341.253906 L 265.457031 341.253906 L 262.953125 350.519531 L 248.277344 350.519531 L 264.40625 300.847656 L 282.261719 300.847656 L 298.59375 350.519531 Z M 278.777344 330.265625 L 276.648438 322.148438 C 276.148438 320.351562 275.539062 318.015625 274.820312 315.152344 C 274.121094 312.292969 273.65625 310.238281 273.4375 308.996094 C 273.234375 310.148438 272.828125 312.039062 272.21875 314.679688 C 271.625 317.316406 270.308594 322.515625 268.261719 330.265625 Z M 278.777344 330.265625 " fill-opacity="1" fill-rule="nonzero"/><path fill="#000000" d="M 303.175781 297.839844 L 316.429688 297.839844 L 316.429688 350.519531 L 303.175781 350.519531 Z M 303.175781 297.839844 " fill-opacity="1" fill-rule="nonzero"/><path fill="#000000" d="M 325.582031 297.839844 L 338.835938 297.839844 L 338.835938 350.519531 L 325.582031 350.519531 Z M 325.582031 297.839844 " fill-opacity="1" fill-rule="nonzero"/></svg>